<svg width="138" height="89" viewBox="0 0 138 89" fill="none" xmlns="http://www.w3.org/2000/svg">
<circle cx="102" cy="45" r="36" fill="url(#paint0_linear_608_598)"/>
<path d="M101.998 21.0047C89.0281 20.7489 78.2961 31.0338 78 44.0024C78.0338 50.6039 80.957 56.8596 85.9992 61.1207V68.0001C85.9992 68.5523 86.4469 69 86.9991 69C87.1865 69 87.3702 68.9473 87.529 68.848L93.1025 65.3664C95.9421 66.4525 98.9575 67.0063 101.998 67.0002C114.967 67.256 125.699 56.9711 125.995 44.0025C125.699 31.0338 114.967 20.7489 101.998 21.0047Z" fill="white"/>
<path d="M117.796 37.403C117.499 37.0042 116.953 36.8849 116.516 37.123L106.117 42.7924L99.6479 37.2449C99.2512 36.9048 98.6595 36.9274 98.2901 37.297L86.2912 49.2958C85.9019 49.6875 85.9038 50.3206 86.2955 50.7099C86.6087 51.0212 87.089 51.0902 87.4771 50.8796L97.8761 45.2102L104.351 50.7597C104.748 51.0998 105.34 51.0772 105.709 50.7076L117.708 38.7088C118.058 38.3559 118.095 37.7997 117.796 37.403Z" fill="url(#paint1_linear_608_598)"/>
<circle cx="102" cy="45" r="36" fill="white"/>
<mask id="mask0_608_598" style="mask-type:alpha" maskUnits="userSpaceOnUse" x="66" y="9" width="72" height="72">
<circle cx="102" cy="45" r="36" fill="white"/>
</mask>
<g mask="url(#mask0_608_598)">
<path d="M82.0428 62.8004C89.2065 64.7626 90.9196 64.202 92.1966 66.1331C92.3523 66.3511 93.0999 67.4724 92.9441 68.9363C92.8195 70.0887 92.1966 70.992 91.7917 71.3657C89.3311 73.7329 82.5723 70.8362 78.7101 67.6592C77.8691 66.974 75.5954 65.1052 76.0626 63.7971C76.2495 63.2676 76.8413 62.9872 77.2462 62.8004C79.0527 61.9594 80.9526 62.52 82.0428 62.8004Z" fill="url(#paint2_linear_608_598)"/>
<path d="M104.188 14.6162H102.662V24.6143H104.188V14.6162Z" fill="url(#paint3_linear_608_598)"/>
<path d="M108.673 30.1584H98.1456C97.367 30.1584 96.744 29.5355 96.744 28.7568V24.988C96.744 24.2094 97.367 23.5864 98.1456 23.5864H108.673C109.452 23.5864 110.075 24.2094 110.075 24.988V28.7568C110.106 29.5355 109.452 30.1584 108.673 30.1584Z" fill="url(#paint4_linear_608_598)"/>
<path d="M127.299 52.0547C127.299 58.1283 122.378 63.0807 116.273 63.0807H90.5458C84.5034 63.0807 79.5199 58.1283 79.5199 52.0547V46.3237C79.5199 35.547 88.3344 26.7324 99.1112 26.7324H107.708C118.484 26.7324 127.299 35.547 127.299 46.3237V52.0547Z" fill="url(#paint5_linear_608_598)"/>
<path d="M119.793 50.9957C119.17 51.3072 118.453 51.4629 117.768 51.4629H89.0818C88.3655 51.4629 87.6802 51.3072 87.0573 50.9957C85.5311 50.2482 84.659 48.6908 84.877 47.1335L84.9082 47.0089C85.6557 41.6828 90.4523 37.6026 96.3702 37.2911C98.8619 37.1665 101.509 37.1042 104.25 37.1042C106.399 37.1042 108.455 37.1665 110.48 37.2911C116.429 37.6026 121.288 41.6828 122.004 47.0089C122.004 47.0401 122.004 47.0712 122.035 47.1335C122.191 48.722 121.319 50.2482 119.793 50.9957Z" fill="url(#paint6_linear_608_598)"/>
<path d="M95.8719 50.3105C98.8651 50.3105 101.291 47.8841 101.291 44.891C101.291 41.8978 98.8651 39.4714 95.8719 39.4714C92.8788 39.4714 90.4524 41.8978 90.4524 44.891C90.4524 47.8841 92.8788 50.3105 95.8719 50.3105Z" fill="url(#paint7_radial_608_598)"/>
<path d="M95.8719 48.7842C98.0221 48.7842 99.7652 47.0411 99.7652 44.8909C99.7652 42.7407 98.0221 40.9976 95.8719 40.9976C93.7216 40.9976 91.9785 42.7407 91.9785 44.8909C91.9785 47.0411 93.7216 48.7842 95.8719 48.7842Z" fill="#EEFDFF"/>
<path d="M95.8718 48.1612C97.678 48.1612 99.1423 46.697 99.1423 44.8908C99.1423 43.0846 97.678 41.6204 95.8718 41.6204C94.0657 41.6204 92.6014 43.0846 92.6014 44.8908C92.6014 46.697 94.0657 48.1612 95.8718 48.1612Z" fill="url(#paint8_linear_608_598)"/>
<path d="M97.9587 44.0499C97.9587 44.704 97.4292 45.2647 96.744 45.2647C96.0899 45.2647 95.5293 44.7352 95.5293 44.0499C95.5293 43.3958 96.0588 42.8352 96.744 42.8352C97.3981 42.8352 97.9587 43.3958 97.9587 44.0499Z" fill="#EEFDFF"/>
<path d="M95.3736 47.8809C95.6316 47.8809 95.8408 47.6718 95.8408 47.4137C95.8408 47.1557 95.6316 46.9465 95.3736 46.9465C95.1155 46.9465 94.9064 47.1557 94.9064 47.4137C94.9064 47.6718 95.1155 47.8809 95.3736 47.8809Z" fill="#EEFDFF"/>
<path d="M94.19 46.6664C94.19 46.791 94.0966 46.9156 93.9408 46.9156C93.8162 46.9156 93.6917 46.8221 93.6917 46.6664C93.6917 46.5418 93.7851 46.4172 93.9408 46.4172C94.0654 46.4484 94.19 46.5418 94.19 46.6664Z" fill="#EEFDFF"/>
<path d="M110.48 50.3105C113.473 50.3105 115.899 47.8841 115.899 44.891C115.899 41.8978 113.473 39.4714 110.48 39.4714C107.487 39.4714 105.06 41.8978 105.06 44.891C105.06 47.8841 107.487 50.3105 110.48 50.3105Z" fill="url(#paint9_radial_608_598)"/>
<path d="M110.48 48.7842C112.63 48.7842 114.373 47.0411 114.373 44.8909C114.373 42.7407 112.63 40.9976 110.48 40.9976C108.33 40.9976 106.586 42.7407 106.586 44.8909C106.586 47.0411 108.33 48.7842 110.48 48.7842Z" fill="#EEFDFF"/>
<path d="M110.48 48.1612C112.286 48.1612 113.75 46.697 113.75 44.8908C113.75 43.0846 112.286 41.6204 110.48 41.6204C108.674 41.6204 107.209 43.0846 107.209 44.8908C107.209 46.697 108.674 48.1612 110.48 48.1612Z" fill="url(#paint10_linear_608_598)"/>
<path d="M112.567 44.0499C112.567 44.704 112.037 45.2647 111.352 45.2647C110.667 45.2647 110.137 44.7352 110.137 44.0499C110.137 43.3958 110.667 42.8352 111.352 42.8352C112.037 42.8352 112.567 43.3958 112.567 44.0499Z" fill="#EEFDFF"/>
<path d="M109.981 47.8809C110.239 47.8809 110.449 47.6718 110.449 47.4137C110.449 47.1557 110.239 46.9465 109.981 46.9465C109.723 46.9465 109.514 47.1557 109.514 47.4137C109.514 47.6718 109.723 47.8809 109.981 47.8809Z" fill="#EEFDFF"/>
<path d="M108.798 46.6664C108.798 46.791 108.704 46.9156 108.549 46.9156C108.393 46.9156 108.299 46.8221 108.299 46.6664C108.299 46.5418 108.393 46.4172 108.549 46.4172C108.704 46.4172 108.798 46.5418 108.798 46.6664Z" fill="#EEFDFF"/>
<path d="M105.372 13.9622C105.372 15.0524 104.5 15.9245 103.409 15.9245C102.319 15.9245 101.447 15.0524 101.447 13.9622C101.447 12.8721 102.319 12 103.409 12C104.5 12 105.372 12.8721 105.372 13.9622Z" fill="url(#paint11_linear_608_598)"/>
<path d="M104.78 13.1836C104.78 13.5262 104.5 13.7754 104.188 13.7754C103.845 13.7754 103.596 13.4951 103.596 13.1836C103.596 12.841 103.877 12.5918 104.188 12.5918C104.5 12.5918 104.78 12.8721 104.78 13.1836Z" fill="white"/>
<path d="M120.26 32.9928C120.291 33.896 119.543 34.9862 118.702 35.0796C117.893 35.1731 117.27 34.3632 116.616 33.5223C115.962 32.6813 114.56 30.5633 115.121 29.9404C115.806 29.1617 120.198 30.8437 120.26 32.9928Z" fill="white"/>
<path d="M112.94 29.5355C113.319 29.5355 113.626 29.2287 113.626 28.8503C113.626 28.4718 113.319 28.165 112.94 28.165C112.562 28.165 112.255 28.4718 112.255 28.8503C112.255 29.2287 112.562 29.5355 112.94 29.5355Z" fill="white"/>
<path d="M120.166 45.6695C119.948 45.8252 118.422 42.7417 114.342 40.032C112.909 39.0976 111.508 38.4123 111.57 38.2254C111.663 38.0386 113.252 38.3812 114.529 38.973C118.578 40.8729 120.416 45.4826 120.166 45.6695Z" fill="white"/>
<path d="M109.701 25.5487C109.639 25.5487 109.608 25.2684 109.39 24.8323C109.39 24.8323 109.265 24.6143 109.14 24.4585C108.735 23.8979 107.334 23.8979 107.24 23.8979C105.091 23.8979 103.69 23.7733 103.69 23.7733C103.69 23.7733 104.718 23.7733 105.434 23.7422C107.521 23.711 108.767 23.5864 109.327 24.1471C109.545 24.3651 109.67 24.6766 109.67 24.6766C109.826 25.1126 109.763 25.5175 109.701 25.5487Z" fill="white"/>
<path d="M109.265 53.7989C109.203 54.3284 108.767 54.7022 108.268 54.7645L101.105 55.4497C100.575 55.512 100.077 55.2005 99.921 54.7022C99.8587 54.4841 99.7964 54.2661 99.7653 54.0169C99.7653 53.9546 99.7653 53.8923 99.8276 53.8301C99.8587 53.7678 99.921 53.7366 99.9833 53.7366L109.016 52.8645C109.078 52.8645 109.14 52.8645 109.203 52.9268C109.265 52.9579 109.296 53.0202 109.296 53.0825C109.296 53.3317 109.265 53.5809 109.265 53.7989Z" fill="#EEFDFF"/>
<path d="M109.265 53.7988C109.047 56.0102 107.272 57.8479 104.967 58.0659C102.693 58.284 100.637 56.8824 99.9521 54.7955C100.139 55.2316 100.606 55.5119 101.105 55.4496L108.268 54.7644C108.767 54.7021 109.203 54.3283 109.265 53.7988Z" fill="#415E42"/>
<path d="M120.54 69.8706C120.54 69.9329 120.54 69.9952 120.54 70.0575C120.509 70.6492 120.384 71.1164 120.322 71.3033C118.36 77.3146 117.176 80.4916 115.525 83.0768C115.245 83.5128 114.934 83.9489 114.622 84.3538C114.186 84.9144 113.75 85.4439 113.221 86.0046C112.068 87.2505 110.355 87.8111 109.794 87.998C107.77 88.7144 105.963 88.5898 104.749 88.5898H104.531C103.316 88.5898 101.541 88.7144 99.4849 87.998C98.9243 87.8111 97.18 87.2505 96.0588 86.0046C92.9129 82.5784 91.6982 79.7441 88.9262 71.3033C88.8639 71.1164 88.7393 70.6804 88.7081 70.1197C88.7081 69.964 88.7081 69.8083 88.7081 69.6214C88.7704 68.6247 89.1753 67.628 89.8917 66.7248C91.1376 65.1674 93.0687 64.3265 95.0621 64.3265L104.655 64.2953L114.062 64.2642C116.086 64.2642 118.048 65.1051 119.357 66.6936C119.979 67.4411 120.384 68.2821 120.509 69.123C120.54 69.2476 120.54 69.3722 120.571 69.4968C120.54 69.6214 120.54 69.746 120.54 69.8706Z" fill="url(#paint12_linear_608_598)"/>
<path d="M104.593 64.3264L94.9998 64.3575C93.0064 64.3575 91.0753 65.2296 89.8294 66.7558C89.1131 67.6591 88.7082 68.6558 88.6459 69.6524C88.7082 68.6246 89.1131 67.5968 89.8917 66.6624C91.1688 65.105 93.1622 64.2329 95.1867 64.2329L104.593 64.3264Z" fill="url(#paint13_linear_608_598)"/>
<path d="M114.124 78.4359C113.999 70.9919 112.971 69.528 114.466 67.7526C114.622 67.5346 115.494 66.5067 116.927 66.2575C118.079 66.0395 119.107 66.4133 119.606 66.6936C122.565 68.3755 121.692 75.695 119.73 80.3047C119.294 81.3014 118.142 84.0112 116.771 83.9489C116.211 83.9178 115.775 83.4506 115.494 83.1079C114.155 81.5195 114.155 79.5572 114.124 78.4359Z" fill="url(#paint14_linear_608_598)"/>
<path d="M115.494 83.108C115.214 83.5441 114.903 83.9801 114.591 84.385C114.498 84.2916 114.404 84.167 114.311 84.0736C113.003 82.5474 112.971 80.554 112.971 79.4327C112.816 71.9886 111.819 70.5247 113.314 68.7494C113.408 68.6248 113.812 68.1576 114.466 67.7527C113.003 69.528 113.999 70.9919 114.155 78.4049C114.155 79.5573 114.155 81.5195 115.494 83.108C115.494 83.0769 115.494 83.0769 115.494 83.108Z" fill="url(#paint15_linear_608_598)"/>
<path d="M119.699 72.2377C119.668 71.4279 119.512 70.8673 119.201 69.6837C118.796 68.1575 118.329 67.41 118.64 67.0985C118.858 66.9116 119.263 67.0362 119.357 67.0674C120.758 67.5034 121.194 70.1509 121.132 71.8017C121.101 72.7984 120.852 73.9508 120.478 73.9819C120.416 73.9819 120.26 73.9819 120.166 73.8885C119.761 73.5147 119.73 72.8606 119.699 72.2377Z" fill="white"/>
<path d="M120.665 75.0411C120.665 75.1968 120.54 75.3214 120.384 75.3214C120.229 75.3214 120.104 75.1968 120.104 75.0411C120.104 74.8853 120.229 74.7607 120.384 74.7607C120.54 74.7607 120.665 74.8853 120.665 75.0411Z" fill="white"/>
</g>
<path d="M65.5235 49C65.0617 48.915 49.7827 46.1526 46.0049 40.3304H19.9383C8.98272 40.3304 0 31.2359 0 20.144C0 14.5768 2.22469 9.56201 5.83457 5.9072C9.44444 2.25238 14.4395 0 19.9383 0H48.1037C59.0173 0 68 9.05204 68 20.144C68 25.7112 65.7753 30.7259 62.1654 34.3807C61.4938 35.0607 60.7802 35.6982 60.0247 36.2507C60.4864 39.778 61.9136 46.9176 65.5235 49Z" fill="white"/>
<path d="M14.8849 25V14.8182H17.0376V19.0192H21.4077V14.8182H23.5554V25H21.4077V20.794H17.0376V25H14.8849ZM28.7706 25.1491C27.9851 25.1491 27.3089 24.9901 26.7422 24.6719C26.1787 24.3504 25.7446 23.8963 25.4396 23.3097C25.1347 22.7197 24.9822 22.022 24.9822 21.2166C24.9822 20.4311 25.1347 19.7417 25.4396 19.1484C25.7446 18.5552 26.1738 18.0928 26.7273 17.7614C27.2841 17.4299 27.937 17.2642 28.6861 17.2642C29.1899 17.2642 29.6589 17.3454 30.093 17.5078C30.5305 17.6669 30.9117 17.9072 31.2365 18.2287C31.5646 18.5502 31.8198 18.9545 32.0021 19.4418C32.1844 19.9257 32.2756 20.4924 32.2756 21.142V21.7237H25.8274V20.4112H30.282C30.282 20.1063 30.2157 19.8362 30.0831 19.6009C29.9505 19.3655 29.7666 19.1816 29.5312 19.049C29.2992 18.9131 29.0291 18.8452 28.7209 18.8452C28.3994 18.8452 28.1143 18.9197 27.8658 19.0689C27.6205 19.2147 27.4283 19.4119 27.2891 19.6605C27.1499 19.9058 27.0786 20.1792 27.0753 20.4808V21.7287C27.0753 22.1065 27.1449 22.433 27.2841 22.7081C27.4266 22.9832 27.6271 23.1953 27.8857 23.3445C28.1442 23.4936 28.4508 23.5682 28.8054 23.5682C29.0407 23.5682 29.2562 23.535 29.4517 23.4688C29.6473 23.4025 29.8146 23.303 29.9538 23.1705C30.093 23.0379 30.1991 22.8755 30.272 22.6832L32.2308 22.8125C32.1314 23.2831 31.9276 23.6941 31.6193 24.0455C31.3144 24.3935 30.92 24.6652 30.4361 24.8608C29.9555 25.053 29.4003 25.1491 28.7706 25.1491ZM35.7756 14.8182V25H33.6577V14.8182H35.7756ZM39.59 14.8182V25H37.4721V14.8182H39.59ZM44.7369 25.1491C43.9646 25.1491 43.2968 24.9851 42.7333 24.657C42.1732 24.3255 41.7406 23.8648 41.4357 23.2749C41.1308 22.6816 40.9783 21.9938 40.9783 21.2116C40.9783 20.4228 41.1308 19.7334 41.4357 19.1435C41.7406 18.5502 42.1732 18.0895 42.7333 17.7614C43.2968 17.4299 43.9646 17.2642 44.7369 17.2642C45.5091 17.2642 46.1753 17.4299 46.7354 17.7614C47.2989 18.0895 47.7331 18.5502 48.038 19.1435C48.3429 19.7334 48.4954 20.4228 48.4954 21.2116C48.4954 21.9938 48.3429 22.6816 48.038 23.2749C47.7331 23.8648 47.2989 24.3255 46.7354 24.657C46.1753 24.9851 45.5091 25.1491 44.7369 25.1491ZM44.7468 23.5085C45.0981 23.5085 45.3915 23.4091 45.6268 23.2102C45.8621 23.008 46.0394 22.733 46.1587 22.3849C46.2814 22.0369 46.3427 21.6409 46.3427 21.1967C46.3427 20.7526 46.2814 20.3565 46.1587 20.0085C46.0394 19.6605 45.8621 19.3854 45.6268 19.1832C45.3915 18.9811 45.0981 18.88 44.7468 18.88C44.3922 18.88 44.0939 18.9811 43.8519 19.1832C43.6133 19.3854 43.4326 19.6605 43.31 20.0085C43.1907 20.3565 43.131 20.7526 43.131 21.1967C43.131 21.6409 43.1907 22.0369 43.31 22.3849C43.4326 22.733 43.6133 23.008 43.8519 23.2102C44.0939 23.4091 44.3922 23.5085 44.7468 23.5085ZM52.4031 14.8182L52.2092 21.9474H50.3896L50.1907 14.8182H52.4031ZM51.2994 25.1293C50.9712 25.1293 50.6895 25.0133 50.4542 24.7812C50.2189 24.5459 50.1029 24.2642 50.1062 23.9361C50.1029 23.6113 50.2189 23.3329 50.4542 23.1009C50.6895 22.8688 50.9712 22.7528 51.2994 22.7528C51.6142 22.7528 51.891 22.8688 52.1296 23.1009C52.3683 23.3329 52.4892 23.6113 52.4925 23.9361C52.4892 24.1548 52.4312 24.3554 52.3185 24.5376C52.2092 24.7166 52.065 24.8608 51.886 24.9702C51.707 25.0762 51.5115 25.1293 51.2994 25.1293Z" fill="#333333"/>
<defs>
<linearGradient id="paint0_linear_608_598" x1="65.9988" y1="45.0037" x2="137.998" y2="45.0037" gradientUnits="userSpaceOnUse">
<stop stop-color="#3BB54A"/>
<stop offset="1" stop-color="#7EC341"/>
</linearGradient>
<linearGradient id="paint1_linear_608_598" x1="85.9999" y1="44.0015" x2="117.997" y2="44.0015" gradientUnits="userSpaceOnUse">
<stop stop-color="#3BB54A"/>
<stop offset="1" stop-color="#7EC341"/>
</linearGradient>
<linearGradient id="paint2_linear_608_598" x1="86.125" y1="67.3286" x2="113.921" y2="88.9316" gradientUnits="userSpaceOnUse">
<stop offset="0.0396825" stop-color="#43B649"/>
<stop offset="1" stop-color="#7EDC3B"/>
</linearGradient>
<linearGradient id="paint3_linear_608_598" x1="100.307" y1="20.0824" x2="104.884" y2="19.4149" gradientUnits="userSpaceOnUse">
<stop offset="0.0396825" stop-color="#5CBC45"/>
<stop offset="1" stop-color="#DEFA8E"/>
</linearGradient>
<linearGradient id="paint4_linear_608_598" x1="99.1392" y1="31.7056" x2="107.263" y2="22.5341" gradientUnits="userSpaceOnUse">
<stop offset="0.0396825" stop-color="#48B848"/>
<stop offset="1" stop-color="#DEFA8E"/>
</linearGradient>
<linearGradient id="paint5_linear_608_598" x1="87.3733" y1="63.474" x2="119.563" y2="31.2843" gradientUnits="userSpaceOnUse">
<stop offset="0.0396825" stop-color="#43B649"/>
<stop offset="1" stop-color="#7CDB43"/>
</linearGradient>
<linearGradient id="paint6_linear_608_598" x1="103.332" y1="51.4339" x2="103.618" y2="38.5599" gradientUnits="userSpaceOnUse">
<stop stop-color="#030D14"/>
<stop offset="1" stop-color="#0B2F45"/>
</linearGradient>
<radialGradient id="paint7_radial_608_598" cx="0" cy="0" r="1" gradientUnits="userSpaceOnUse" gradientTransform="translate(95.8599 44.9003) scale(5.35051)">
<stop offset="0.1296" stop-color="#3280FC"/>
<stop offset="1"/>
</radialGradient>
<linearGradient id="paint8_linear_608_598" x1="92.6005" y1="44.9001" x2="99.1192" y2="44.9001" gradientUnits="userSpaceOnUse">
<stop stop-color="#030D14"/>
<stop offset="1" stop-color="#0B2F45"/>
</linearGradient>
<radialGradient id="paint9_radial_608_598" cx="0" cy="0" r="1" gradientUnits="userSpaceOnUse" gradientTransform="translate(110.465 44.9003) scale(5.35051)">
<stop offset="0.1296" stop-color="#3280FC"/>
<stop offset="1"/>
</radialGradient>
<linearGradient id="paint10_linear_608_598" x1="107.206" y1="44.9001" x2="113.725" y2="44.9001" gradientUnits="userSpaceOnUse">
<stop stop-color="#030D14"/>
<stop offset="1" stop-color="#0B2F45"/>
</linearGradient>
<linearGradient id="paint11_linear_608_598" x1="99.3011" y1="14.5551" x2="105.359" y2="13.6716" gradientUnits="userSpaceOnUse">
<stop offset="0.0396825" stop-color="#47B748"/>
<stop offset="1" stop-color="#7DD542"/>
</linearGradient>
<linearGradient id="paint12_linear_608_598" x1="94.4184" y1="84.7168" x2="119.112" y2="55.8813" gradientUnits="userSpaceOnUse">
<stop offset="0.0396825" stop-color="#58BB46"/>
<stop offset="0.0407546" stop-color="#48B848"/>
<stop offset="0.3793" stop-color="#76E12E"/>
<stop offset="0.4719" stop-color="#7FEF31"/>
<stop offset="0.5423" stop-color="#7CF134"/>
<stop offset="0.8004" stop-color="#B9F39F"/>
<stop offset="1" stop-color="#DEFA8E"/>
</linearGradient>
<linearGradient id="paint13_linear_608_598" x1="93.1104" y1="70.3409" x2="107.96" y2="53.0004" gradientUnits="userSpaceOnUse">
<stop offset="0.0396825" stop-color="#06CFF1"/>
<stop offset="1" stop-color="#DEFA8E"/>
</linearGradient>
<linearGradient id="paint14_linear_608_598" x1="125.017" y1="80.411" x2="106.528" y2="66.8888" gradientUnits="userSpaceOnUse">
<stop offset="0.0396825" stop-color="#4DB947"/>
<stop offset="0.0733648" stop-color="#43B749"/>
<stop offset="0.4151" stop-color="#80D944"/>
<stop offset="0.6937" stop-color="#80F580"/>
<stop offset="0.8955" stop-color="#C8FC7C"/>
<stop offset="1" stop-color="#D7FF64"/>
</linearGradient>
<linearGradient id="paint15_linear_608_598" x1="108.724" y1="79.0997" x2="121.827" y2="72.2714" gradientUnits="userSpaceOnUse">
<stop offset="0.0396825" stop-color="#43B649"/>
<stop offset="1" stop-color="#47D84F"/>
</linearGradient>
</defs>
</svg>
